{"asset":{"generator":"glTF-Transform v4.2.1","version":"2.0"},"accessors":[{"type":"SCALAR","componentType":5123,"count":3132,"normalized":false,"byteOffset":0,"bufferView":0},{"type":"VEC3","componentType":5120,"count":3132,"normalized":true,"byteOffset":0,"bufferView":1},{"type":"VEC3","componentType":5122,"count":3132,"max":[32343,32663,32767],"min":[-32343,-32663,-32767],"normalized":true,"byteOffset":0,"bufferView":2},{"type":"VEC2","componentType":5123,"count":3132,"normalized":true,"byteOffset":0,"bufferView":3}],"bufferViews":[{"buffer":1,"byteOffset":0,"byteLength":6264,"target":34963,"extensions":{"EXT_meshopt_compression":{"buffer":0,"byteOffset":0,"byteLength":1061,"mode":"TRIANGLES","byteStride":2,"count":3132}}},{"buffer":1,"byteOffset":6264,"byteLength":12528,"target":34962,"byteStride":4,"extensions":{"EXT_meshopt_compression":{"buffer":0,"byteOffset":1064,"byteLength":6152,"mode":"ATTRIBUTES","filter":"OCTAHEDRAL","byteStride":4,"count":3132}}},{"buffer":1,"byteOffset":18792,"byteLength":25056,"target":34962,"byteStride":8,"extensions":{"EXT_meshopt_compression":{"buffer":0,"byteOffset":7216,"byteLength":18826,"mode":"ATTRIBUTES","byteStride":8,"count":3132}}},{"buffer":1,"byteOffset":43848,"byteLength":12528,"target":34962,"byteStride":4,"extensions":{"EXT_meshopt_compression":{"buffer":0,"byteOffset":26044,"byteLength":12238,"mode":"ATTRIBUTES","byteStride":4,"count":3132}}}],"samplers":[{"magFilter":9729,"minFilter":9987,"wrapS":10497,"wrapT":10497}],"textures":[{"source":0,"sampler":0},{"source":2,"sampler":0},{"source":1,"sampler":0}],"images":[{"name":"Baseball_Ball_MTL_BaseColor.1001","mimeType":"image/png","uri":"baseColor_1.png"},{"name":"Baseball_Ball_MTL_Metallic.1001.png-Baseball_Ball_MTL_Roughness.1001.png","mimeType":"image/png","uri":"metallicRoughness_1.png"},{"name":"Baseball_Ball_MTL_Normal.1001","mimeType":"image/png","uri":"normal_1.png"}],"buffers":[{"uri":"result.bin","byteLength":38284},{"byteLength":56376,"extensions":{"EXT_meshopt_compression":{"fallback":true}}}],"materials":[{"name":"Baseball_Ball_Clean","doubleSided":true,"pbrMetallicRoughness":{"baseColorTexture":{"index":0},"metallicRoughnessTexture":{"index":2}},"normalTexture":{"index":1}}],"meshes":[{"name":"Mesh.005","primitives":[{"attributes":{"NORMAL":1,"POSITION":2,"TEXCOORD_0":3},"mode":4,"material":0,"indices":0}]}],"nodes":[{"name":"ROOT","children":[1]},{"name":"Baseball_Ball_Clean","translation":[0.000014781951904296875,0.0012495368719100952,-0.00005215592682361603],"scale":[0.03497677855193615,0.03497677855193615,0.03497677855193615],"mesh":0}],"scenes":[{"nodes":[0]}],"scene":0,"extensionsUsed":["EXT_meshopt_compression","KHR_materials_volume","KHR_mesh_quantization"],"extensionsRequired":["EXT_meshopt_compression","KHR_mesh_quantization"]}